<svg fill="none" xmlns="http://www.w3.org/2000/svg" viewBox="0 0 264 264"><g filter="url(#filter0_dii)"><path d="M245.834 138.149c3.309.179 6.152-2.359 6.165-5.673a119.993 119.993 0 00-54.438-100.983c-2.775-1.81-6.458-.83-8.128 2.032l-12.091 20.731c-1.669 2.863-.688 6.519 2.048 8.389a84.003 84.003 0 0136.597 67.888c.058 3.314 2.573 6.143 5.882 6.322l23.965 1.294z" fill="url(#paint0_radial)" fill-opacity=".5"/></g><g filter="url(#filter1_dii)"><path d="M74.35 33.65c-1.675-2.858-5.36-3.83-8.132-2.013a120 120 0 003.23 202.771c2.828 1.727 6.48.638 8.065-2.272l11.47-21.082c1.584-2.91.495-6.536-2.295-8.323a84.002 84.002 0 01-2.23-139.982c2.732-1.876 3.705-5.534 2.03-8.393L74.35 33.651z" fill="url(#paint1_radial)" fill-opacity=".5"/></g><g filter="url(#filter2_dii)"><path d="M79.895 233.396c-1.515 2.947-.359 6.579 2.66 7.944a119.99 119.99 0 0051.721 10.638 120 120 0 00116.849-105.51c.399-3.29-2.106-6.163-5.411-6.397l-23.94-1.699c-3.305-.235-6.153 2.26-6.623 5.54a83.992 83.992 0 01-81.558 72.073 84.004 84.004 0 01-34.556-6.723c-3.048-1.3-6.658-.16-8.173 2.787l-10.97 21.347z" fill="url(#paint2_radial)" fill-opacity=".5"/></g><g filter="url(#filter3_dii)"><path d="M187.504 32.424c1.613-2.894.581-6.563-2.391-8.03a119.997 119.997 0 00-106.513.143c-2.968 1.474-3.99 5.146-2.37 8.036l11.742 20.932c1.62 2.89 5.27 3.898 8.268 2.487a84.002 84.002 0 0171.317-.095c3.002 1.402 6.648.385 8.262-2.51l11.685-20.963z" fill="url(#paint3_radial)" fill-opacity=".8"/></g><defs><radialGradient id="paint0_radial" cx="0" cy="0" r="1" gradientUnits="userSpaceOnUse" gradientTransform="rotate(90 -.376 132) scale(119.624)"><stop offset=".729" stop-color="#633F00"/><stop offset="1" stop-color="#0F0900"/></radialGradient><radialGradient id="paint1_radial" cx="0" cy="0" r="1" gradientUnits="userSpaceOnUse" gradientTransform="rotate(90 -.376 132) scale(119.624)"><stop offset=".719" stop-color="#4D4D4D"/><stop offset="1" stop-color="#382900"/></radialGradient><radialGradient id="paint2_radial" cx="0" cy="0" r="1" gradientUnits="userSpaceOnUse" gradientTransform="rotate(90 -.376 132) scale(119.624)"><stop offset=".719" stop-color="#9B9B9B"/><stop offset="1" stop-color="#382900"/></radialGradient><radialGradient id="paint3_radial" cx="0" cy="0" r="1" gradientUnits="userSpaceOnUse" gradientTransform="rotate(90 -.376 132) scale(119.624)"><stop offset=".719" stop-color="#FFA300"/><stop offset="1" stop-color="#5B3A00"/></radialGradient><filter id="filter0_dii" x="164.523" y="18.578" width="99.477" height="131.58" filterUnits="userSpaceOnUse" color-interpolation-filters="sRGB"><feFlood flood-opacity="0" result="BackgroundImageFix"/><feColorMatrix in="SourceAlpha" values="0 0 0 0 0 0 0 0 0 0 0 0 0 0 0 0 0 0 127 0"/><feMorphology radius="8" in="SourceAlpha" result="effect1_dropShadow"/><feOffset/><feGaussianBlur stdDeviation="10"/><feColorMatrix values="0 0 0 0 0.575 0 0 0 0 0.365803 0 0 0 0 0 0 0 0 0.2 0"/><feBlend in2="BackgroundImageFix" result="effect1_dropShadow"/><feBlend in="SourceGraphic" in2="effect1_dropShadow" result="shape"/><feColorMatrix in="SourceAlpha" values="0 0 0 0 0 0 0 0 0 0 0 0 0 0 0 0 0 0 127 0" result="hardAlpha"/><feOffset/><feGaussianBlur stdDeviation="10"/><feComposite in2="hardAlpha" operator="arithmetic" k2="-1" k3="1"/><feColorMatrix values="0 0 0 0 0.791667 0 0 0 0 0.504028 0 0 0 0 0 0 0 0 0.9 0"/><feBlend in2="shape" result="effect2_innerShadow"/><feColorMatrix in="SourceAlpha" values="0 0 0 0 0 0 0 0 0 0 0 0 0 0 0 0 0 0 127 0" result="hardAlpha"/><feOffset dx="-1" dy="1"/><feGaussianBlur stdDeviation=".5"/><feComposite in2="hardAlpha" operator="arithmetic" k2="-1" k3="1"/><feColorMatrix values="0 0 0 0 1 0 0 0 0 1 0 0 0 0 1 0 0 0 0.5 0"/><feBlend in2="effect2_innerShadow" result="effect3_innerShadow"/></filter><filter id="filter1_dii" x="0" y="18.715" width="101.715" height="228.518" filterUnits="userSpaceOnUse" color-interpolation-filters="sRGB"><feFlood flood-opacity="0" result="BackgroundImageFix"/><feColorMatrix in="SourceAlpha" values="0 0 0 0 0 0 0 0 0 0 0 0 0 0 0 0 0 0 127 0"/><feMorphology radius="8" in="SourceAlpha" result="effect1_dropShadow"/><feOffset/><feGaussianBlur stdDeviation="10"/><feColorMatrix values="0 0 0 0 0.375 0 0 0 0 0.375 0 0 0 0 0.375 0 0 0 0.2 0"/><feBlend in2="BackgroundImageFix" result="effect1_dropShadow"/><feBlend in="SourceGraphic" in2="effect1_dropShadow" result="shape"/><feColorMatrix in="SourceAlpha" values="0 0 0 0 0 0 0 0 0 0 0 0 0 0 0 0 0 0 127 0" result="hardAlpha"/><feOffset/><feGaussianBlur stdDeviation="10"/><feComposite in2="hardAlpha" operator="arithmetic" k2="-1" k3="1"/><feColorMatrix values="0 0 0 0 0.15 0 0 0 0 0.15 0 0 0 0 0.15 0 0 0 0.9 0"/><feBlend in2="shape" result="effect2_innerShadow"/><feColorMatrix in="SourceAlpha" values="0 0 0 0 0 0 0 0 0 0 0 0 0 0 0 0 0 0 127 0" result="hardAlpha"/><feOffset dx="-1" dy="1"/><feGaussianBlur stdDeviation=".5"/><feComposite in2="hardAlpha" operator="arithmetic" k2="-1" k3="1"/><feColorMatrix values="0 0 0 0 1 0 0 0 0 1 0 0 0 0 1 0 0 0 0.5 0"/><feBlend in2="effect2_innerShadow" result="effect3_innerShadow"/></filter><filter id="filter2_dii" x="67.231" y="126.356" width="195.936" height="137.644" filterUnits="userSpaceOnUse" color-interpolation-filters="sRGB"><feFlood flood-opacity="0" result="BackgroundImageFix"/><feColorMatrix in="SourceAlpha" values="0 0 0 0 0 0 0 0 0 0 0 0 0 0 0 0 0 0 127 0"/><feMorphology radius="8" in="SourceAlpha" result="effect1_dropShadow"/><feOffset/><feGaussianBlur stdDeviation="10"/><feColorMatrix values="0 0 0 0 0 0 0 0 0 0 0 0 0 0 0 0 0 0 0.2 0"/><feBlend in2="BackgroundImageFix" result="effect1_dropShadow"/><feBlend in="SourceGraphic" in2="effect1_dropShadow" result="shape"/><feColorMatrix in="SourceAlpha" values="0 0 0 0 0 0 0 0 0 0 0 0 0 0 0 0 0 0 127 0" result="hardAlpha"/><feOffset/><feGaussianBlur stdDeviation="10"/><feComposite in2="hardAlpha" operator="arithmetic" k2="-1" k3="1"/><feColorMatrix values="0 0 0 0 0.545833 0 0 0 0 0.545833 0 0 0 0 0.545833 0 0 0 0.9 0"/><feBlend in2="shape" result="effect2_innerShadow"/><feColorMatrix in="SourceAlpha" values="0 0 0 0 0 0 0 0 0 0 0 0 0 0 0 0 0 0 127 0" result="hardAlpha"/><feOffset dx="-1" dy="1"/><feGaussianBlur stdDeviation=".5"/><feComposite in2="hardAlpha" operator="arithmetic" k2="-1" k3="1"/><feColorMatrix values="0 0 0 0 1 0 0 0 0 1 0 0 0 0 1 0 0 0 0.5 0"/><feBlend in2="effect2_innerShadow" result="effect3_innerShadow"/></filter><filter id="filter3_dii" x="63.464" y="0" width="136.799" height="68.623" filterUnits="userSpaceOnUse" color-interpolation-filters="sRGB"><feFlood flood-opacity="0" result="BackgroundImageFix"/><feColorMatrix in="SourceAlpha" values="0 0 0 0 0 0 0 0 0 0 0 0 0 0 0 0 0 0 127 0"/><feMorphology radius="8" in="SourceAlpha" result="effect1_dropShadow"/><feOffset/><feGaussianBlur stdDeviation="10"/><feColorMatrix values="0 0 0 0 0.972549 0 0 0 0 0.618715 0 0 0 0 0 0 0 0 0.2 0"/><feBlend in2="BackgroundImageFix" result="effect1_dropShadow"/><feBlend in="SourceGraphic" in2="effect1_dropShadow" result="shape"/><feColorMatrix in="SourceAlpha" values="0 0 0 0 0 0 0 0 0 0 0 0 0 0 0 0 0 0 127 0" result="hardAlpha"/><feOffset/><feGaussianBlur stdDeviation="10"/><feComposite in2="hardAlpha" operator="arithmetic" k2="-1" k3="1"/><feColorMatrix values="0 0 0 0 1 0 0 0 0 0.636666 0 0 0 0 0 0 0 0 0.9 0"/><feBlend in2="shape" result="effect2_innerShadow"/><feColorMatrix in="SourceAlpha" values="0 0 0 0 0 0 0 0 0 0 0 0 0 0 0 0 0 0 127 0" result="hardAlpha"/><feOffset dx="-1" dy="1"/><feGaussianBlur stdDeviation=".5"/><feComposite in2="hardAlpha" operator="arithmetic" k2="-1" k3="1"/><feColorMatrix values="0 0 0 0 1 0 0 0 0 1 0 0 0 0 1 0 0 0 0.5 0"/><feBlend in2="effect2_innerShadow" result="effect3_innerShadow"/></filter></defs></svg>