<svg width="328" height="328" fill="none" xmlns="http://www.w3.org/2000/svg"><g filter="url(#filter0_ii)"><path d="M321.854 170.788c3.311.142 6.121-2.427 6.143-5.741a164.004 164.004 0 00-76.545-139.785c-2.803-1.767-6.482-.782-8.145 2.084L224.635 59.52c-1.663 2.866-.679 6.525 2.097 8.335a114.804 114.804 0 0152.063 95.078c.031 3.314 2.583 6.114 5.893 6.257l37.166 1.598z" fill="url(#paint0_radial)" fill-opacity=".6"/></g><g filter="url(#filter1_ii)"><path d="M84.647 27.372c-1.664-2.865-5.343-3.848-8.146-2.08a164.001 164.001 0 003.772 279.725c2.85 1.692 6.5.61 8.087-2.299l17.809-32.661c1.586-2.909.504-6.54-2.318-8.276a114.804 114.804 0 01-54.64-96.233 114.797 114.797 0 0152.025-97.672c2.775-1.811 3.758-5.47 2.094-8.336L84.647 27.373z" fill="url(#paint1_radial)" fill-opacity=".5"/></g><g filter="url(#filter2_ii)"><path d="M91.248 304.254c-1.526 2.941-.383 6.573 2.613 7.991A164.001 164.001 0 00327.2 180.168c.327-3.298-2.199-6.148-5.506-6.354l-37.128-2.31c-3.308-.206-6.139 2.311-6.518 5.603a114.793 114.793 0 01-57.5 86.799 114.79 114.79 0 01-104.013 4.622c-3.018-1.37-6.633-.238-8.159 2.704l-17.13 33.022z" fill="url(#paint2_radial)" fill-opacity=".25"/></g><g filter="url(#filter3_ii)"><path d="M240.6 25.81c1.606-2.898.564-6.56-2.391-8.06a164 164 0 00-148.404-.007c-2.955 1.5-3.998 5.162-2.392 8.06l18.032 32.537c1.606 2.899 5.252 3.931 8.23 2.478a114.801 114.801 0 01100.66.005c2.978 1.453 6.623.421 8.23-2.477L240.6 25.81z" fill="url(#paint3_radial)" fill-opacity=".8"/></g><defs><radialGradient id="paint0_radial" cx="0" cy="0" r="1" gradientUnits="userSpaceOnUse" gradientTransform="rotate(90 -.514 164) scale(163.486)"><stop offset=".813" stop-color="#FFB800" stop-opacity=".4"/><stop offset="1" stop-color="#FFEF99" stop-opacity=".2"/></radialGradient><radialGradient id="paint1_radial" cx="0" cy="0" r="1" gradientUnits="userSpaceOnUse" gradientTransform="rotate(90 -.514 164) scale(163.486)"><stop offset=".828" stop-color="#BFBFBF" stop-opacity=".69"/><stop offset=".922" stop-color="#E4E4E4" stop-opacity=".2"/></radialGradient><radialGradient id="paint2_radial" cx="0" cy="0" r="1" gradientUnits="userSpaceOnUse" gradientTransform="rotate(90 -.514 164) scale(163.486)"><stop offset=".828" stop-color="#A6A6A6" stop-opacity=".69"/><stop offset=".922" stop-color="#CBCBCB" stop-opacity=".2"/></radialGradient><radialGradient id="paint3_radial" cx="0" cy="0" r="1" gradientUnits="userSpaceOnUse" gradientTransform="rotate(90 -.514 164) scale(163.486)"><stop offset=".813" stop-color="#FFB800" stop-opacity=".7"/><stop offset="1" stop-color="#FFEF99" stop-opacity=".4"/></radialGradient><filter id="filter0_ii" x="222.822" y="24.38" width="105.178" height="147.413" filterUnits="userSpaceOnUse" color-interpolation-filters="sRGB"><feFlood flood-opacity="0" result="BackgroundImageFix"/><feBlend in="SourceGraphic" in2="BackgroundImageFix" result="shape"/><feColorMatrix in="SourceAlpha" values="0 0 0 0 0 0 0 0 0 0 0 0 0 0 0 0 0 0 127 0" result="hardAlpha"/><feOffset/><feGaussianBlur stdDeviation="10"/><feComposite in2="hardAlpha" operator="arithmetic" k2="-1" k3="1"/><feColorMatrix values="0 0 0 0 1 0 0 0 0 0.69 0 0 0 0 0.225 0 0 0 0.4 0"/><feBlend in2="shape" result="effect1_innerShadow"/><feColorMatrix in="SourceAlpha" values="0 0 0 0 0 0 0 0 0 0 0 0 0 0 0 0 0 0 127 0" result="hardAlpha"/><feOffset dx="-1" dy="1"/><feGaussianBlur stdDeviation=".5"/><feComposite in2="hardAlpha" operator="arithmetic" k2="-1" k3="1"/><feColorMatrix values="0 0 0 0 1 0 0 0 0 1 0 0 0 0 1 0 0 0 0.5 0"/><feBlend in2="effect1_innerShadow" result="effect2_innerShadow"/></filter><filter id="filter1_ii" x="-1" y="24.408" width="107.903" height="282.412" filterUnits="userSpaceOnUse" color-interpolation-filters="sRGB"><feFlood flood-opacity="0" result="BackgroundImageFix"/><feBlend in="SourceGraphic" in2="BackgroundImageFix" result="shape"/><feColorMatrix in="SourceAlpha" values="0 0 0 0 0 0 0 0 0 0 0 0 0 0 0 0 0 0 127 0" result="hardAlpha"/><feOffset/><feGaussianBlur stdDeviation="10"/><feComposite in2="hardAlpha" operator="arithmetic" k2="-1" k3="1"/><feColorMatrix values="0 0 0 0 0.5125 0 0 0 0 0.5125 0 0 0 0 0.5125 0 0 0 0.6 0"/><feBlend in2="shape" result="effect1_innerShadow"/><feColorMatrix in="SourceAlpha" values="0 0 0 0 0 0 0 0 0 0 0 0 0 0 0 0 0 0 127 0" result="hardAlpha"/><feOffset dx="-1" dy="1"/><feGaussianBlur stdDeviation=".5"/><feComposite in2="hardAlpha" operator="arithmetic" k2="-1" k3="1"/><feColorMatrix values="0 0 0 0 1 0 0 0 0 1 0 0 0 0 1 0 0 0 0.5 0"/><feBlend in2="effect1_innerShadow" result="effect2_innerShadow"/></filter><filter id="filter2_ii" x="89.573" y="171.492" width="237.656" height="157.508" filterUnits="userSpaceOnUse" color-interpolation-filters="sRGB"><feFlood flood-opacity="0" result="BackgroundImageFix"/><feBlend in="SourceGraphic" in2="BackgroundImageFix" result="shape"/><feColorMatrix in="SourceAlpha" values="0 0 0 0 0 0 0 0 0 0 0 0 0 0 0 0 0 0 127 0" result="hardAlpha"/><feOffset/><feGaussianBlur stdDeviation="10"/><feComposite in2="hardAlpha" operator="arithmetic" k2="-1" k3="1"/><feColorMatrix values="0 0 0 0 0.4125 0 0 0 0 0.4125 0 0 0 0 0.4125 0 0 0 0.2 0"/><feBlend in2="shape" result="effect1_innerShadow"/><feColorMatrix in="SourceAlpha" values="0 0 0 0 0 0 0 0 0 0 0 0 0 0 0 0 0 0 127 0" result="hardAlpha"/><feOffset dx="-1" dy="1"/><feGaussianBlur stdDeviation=".5"/><feComposite in2="hardAlpha" operator="arithmetic" k2="-1" k3="1"/><feColorMatrix values="0 0 0 0 1 0 0 0 0 1 0 0 0 0 1 0 0 0 0.5 0"/><feBlend in2="effect1_innerShadow" result="effect2_innerShadow"/></filter><filter id="filter3_ii" x="85.661" y="0" width="155.692" height="62.477" filterUnits="userSpaceOnUse" color-interpolation-filters="sRGB"><feFlood flood-opacity="0" result="BackgroundImageFix"/><feBlend in="SourceGraphic" in2="BackgroundImageFix" result="shape"/><feColorMatrix in="SourceAlpha" values="0 0 0 0 0 0 0 0 0 0 0 0 0 0 0 0 0 0 127 0" result="hardAlpha"/><feOffset/><feGaussianBlur stdDeviation="10"/><feComposite in2="hardAlpha" operator="arithmetic" k2="-1" k3="1"/><feColorMatrix values="0 0 0 0 1 0 0 0 0 0.69 0 0 0 0 0.225 0 0 0 0.9 0"/><feBlend in2="shape" result="effect1_innerShadow"/><feColorMatrix in="SourceAlpha" values="0 0 0 0 0 0 0 0 0 0 0 0 0 0 0 0 0 0 127 0" result="hardAlpha"/><feOffset dx="-1" dy="1"/><feGaussianBlur stdDeviation=".5"/><feComposite in2="hardAlpha" operator="arithmetic" k2="-1" k3="1"/><feColorMatrix values="0 0 0 0 1 0 0 0 0 1 0 0 0 0 1 0 0 0 0.5 0"/><feBlend in2="effect1_innerShadow" result="effect2_innerShadow"/></filter></defs></svg>